HIERARCHY
ROOT Hips
{
	OFFSET -1.491427 105.555573 -1.111724
	CHANNELS 6 Xposition Yposition Zposition Xrotation Yrotation Zrotation
	JOINT Chest
	{
		OFFSET 0.277557 13.555382 1.526027
		CHANNELS 3 Xrotation Yrotation Zrotation
		JOINT Chest2
		{
			OFFSET -0.368667 21.221565 2.928479
			CHANNELS 3 Xrotation Yrotation Zrotation
			JOINT Chest3
			{
				OFFSET -0.296620 14.901489 -0.823190
				CHANNELS 3 Xrotation Yrotation Zrotation
				JOINT Neck
				{
					OFFSET 0.562594 17.182907 1.745667
					CHANNELS 3 Xrotation Yrotation Zrotation
					JOINT Head
					{
						OFFSET -0.139211 10.379868 1.437556
						CHANNELS 3 Xrotation Yrotation Zrotation
						End Site
						{
							OFFSET -0.132636 10.389694 1.365434
						}
					}
				}
				JOINT LeftCollar
				{
					OFFSET 4.662727 12.758423 4.157646
					CHANNELS 3 Xrotation Yrotation Zrotation
					JOINT LeftUpArm
					{
						OFFSET 14.532192 -5.487595 -8.197623
						CHANNELS 3 Xrotation Yrotation Zrotation
						JOINT LeftLowArm
						{
							OFFSET 4.513027 -33.454712 -0.378673
							CHANNELS 3 Xrotation Yrotation Zrotation
							JOINT LeftHand
							{
								OFFSET -2.637226 -27.660339 11.353328
								CHANNELS 3 Xrotation Yrotation Zrotation
								End Site
								{
									OFFSET -0.576374 -6.045326 2.481342
								}
							}
						}
					}
				}
				JOINT RightCollar
				{
					OFFSET -3.749080 13.023743 4.258567
					CHANNELS 3 Xrotation Yrotation Zrotation
					JOINT RightUpArm
					{
						OFFSET -14.312009 -5.554367 -8.532988
						CHANNELS 3 Xrotation Yrotation Zrotation
						JOINT RightLowArm
						{
							OFFSET -6.367851 -33.113098 -1.645761
							CHANNELS 3 Xrotation Yrotation Zrotation
							JOINT RightHand
							{
								OFFSET 2.245697 -27.962120 10.678567
								CHANNELS 3 Xrotation Yrotation Zrotation
								End Site
								{
									OFFSET 0.490810 -6.111404 2.333902
								}
							}
						}
					}
				}
			}
		}
	}
	JOINT LeftUpLeg
	{
		OFFSET 10.007609 -0.255661 0.448906
		CHANNELS 3 Xrotation Yrotation Zrotation
		JOINT LeftLowLeg
		{
			OFFSET 3.021053 -47.035347 -4.747488
			CHANNELS 3 Xrotation Yrotation Zrotation
			JOINT LeftFoot
			{
				OFFSET 1.660898 -42.831001 -12.779461
				CHANNELS 3 Xrotation Yrotation Zrotation
				JOINT LeftToe
				{
					OFFSET -0.911182 -16.682594 16.745756
					CHANNELS 3 Xrotation Yrotation Zrotation
					End Site
					{
						OFFSET -0.208311 -2.276520 23.544277
					}
				}
			}
		}
	}
	JOINT RightUpLeg
	{
		OFFSET -10.007618 0.255463 -0.448928
		CHANNELS 3 Xrotation Yrotation Zrotation
		JOINT RightLowLeg
		{
			OFFSET -1.200478 -47.309364 -2.096578
			CHANNELS 3 Xrotation Yrotation Zrotation
			JOINT RightFoot
			{
				OFFSET 1.457757 -42.389828 -14.197104
				CHANNELS 3 Xrotation Yrotation Zrotation
				JOINT RightToe
				{
					OFFSET -2.526630 -17.805923 15.366268
					CHANNELS 3 Xrotation Yrotation Zrotation
					End Site
					{
						OFFSET -5.440688 -3.940449 22.681004
					}
				}
			}
		}
	}
}
MOTION
Frames: 8
Frame Time: 0.033333
-25.492170 102.072716 -5.383967 0.094064 -26.835318 -10.491299 -9.111340 3.292038 -7.813777 0.456669 3.079337 -7.022326 -1.807852 7.337322 9.232968 6.289145 1.007583 -4.005673 -0.000001 -0.000001 -0.000002 -9.377015 -5.947909 48.061347 -12.865674 -13.834627 83.530884 -8.991065 26.897155 32.775110 0.000001 -0.000001 -0.000001 -6.349614 11.930532 -44.241529 -20.542723 20.455530 -71.200767 -48.706304 0.708345 -55.999085 -0.000001 0.000003 0.000003 -7.640238 -3.801757 18.594510 102.475241 7.123568 24.125147 13.535506 -1.203246 -4.822815 -0.000002 -0.000003 -0.000002 6.324661 -0.842645 10.996830 -0.775768 3.556803 10.900710 -14.939280 -16.746038 -6.658495 0.000001 -0.000005 -0.000001 
-25.479763 101.991714 -5.409086 -0.110104 -26.828266 -10.532701 -9.392410 3.287542 -7.693978 0.742789 3.144341 -7.154451 -1.979486 7.407806 9.354119 6.489367 0.836745 -3.948744 -0.000001 0.000000 0.000001 -9.366102 -5.943331 47.786961 -12.856339 -13.494328 83.276631 -9.593742 26.575129 32.802205 0.000002 -0.000003 0.000001 -6.285409 12.068806 -44.065184 -20.733608 20.827106 -71.053529 -48.946269 0.807264 -55.853606 0.000003 0.000000 0.000000 -7.361510 -3.696748 18.399742 103.102737 7.054684 23.819144 13.145522 -0.697068 -4.606239 -0.000001 0.000000 0.000000 6.815196 -0.845889 10.853918 -1.080096 3.420504 10.918903 -14.775157 -16.358814 -6.418857 0.000002 -0.000004 -0.000003 
-25.473337 101.915184 -5.434307 0.091638 -26.189430 -10.560231 -9.286110 3.303327 -7.821316 0.701318 3.010839 -6.848570 -1.840713 7.289213 9.102751 6.321180 0.653308 -3.589482 0.000000 -0.000000 -0.000000 -8.979984 -6.262729 47.583770 -12.536221 -13.261444 83.261625 -9.494266 26.455220 33.311037 0.000003 0.000001 -0.000003 -6.552579 11.347549 -43.915681 -20.354440 20.813624 -71.125533 -49.216325 1.119735 -55.594810 -0.000000 -0.000002 0.000000 -7.492284 -3.779547 18.341942 103.284625 7.169930 23.972352 13.269397 -1.037505 -4.717383 -0.000003 0.000000 0.000001 6.948475 -0.771042 10.964568 -1.396360 3.370196 10.956409 -14.606619 -17.069097 -6.780758 0.000001 -0.000002 0.000001 
-25.461067 101.834053 -5.455328 0.415252 -25.897574 -10.679659 -9.469910 3.292998 -7.638490 1.392293 2.984210 -6.929246 -2.501026 6.842092 9.095771 6.276981 0.453664 -3.403043 -0.000002 0.000000 -0.000001 -9.172965 -5.765099 47.440373 -12.725259 -13.840128 82.753049 -9.817124 26.102492 33.433656 -0.000001 -0.000005 0.000000 -6.472070 11.408234 -43.439532 -20.360300 21.339316 -71.288201 -48.738618 1.145063 -55.726871 0.000001 0.000001 -0.000001 -7.679600 -3.732670 18.347387 103.734482 7.087618 23.801643 13.071050 -0.587900 -4.553109 0.000001 -0.000002 0.000001 6.436984 -0.820114 11.142109 -0.981326 3.408354 11.265027 -14.976518 -17.406266 -7.113195 -0.000001 -0.000007 -0.000000 
-25.454992 101.756020 -5.480381 0.662595 -25.748679 -10.773913 -10.141160 3.336968 -7.504031 1.178905 2.831573 -6.593031 -1.898309 6.866817 8.815872 6.365965 0.254956 -3.150722 0.000001 0.000001 0.000002 -9.310408 -5.344821 47.473469 -12.512865 -13.883020 82.750638 -9.817854 25.907591 33.771597 0.000003 -0.000002 -0.000001 -6.614809 10.950619 -43.127918 -20.014105 21.119030 -71.410666 -48.295052 1.550222 -57.394694 0.000006 -0.000001 0.000003 -7.841771 -3.832097 18.412641 104.342881 6.584135 23.091444 13.283991 -0.280833 -4.431865 -0.000003 -0.000001 0.000003 6.334635 -0.773530 11.359190 -0.964433 3.438506 11.318101 -15.330582 -17.620100 -7.356240 0.000002 -0.000005 -0.000003 
-25.449263 101.690033 -5.509876 0.894643 -25.659964 -10.855244 -10.223411 3.366874 -7.581116 1.451755 2.831691 -6.595941 -2.123089 6.760812 8.923301 6.154033 0.150093 -3.033453 -0.000001 0.000000 0.000003 -9.401560 -5.133900 47.564232 -12.596651 -13.911669 82.528185 -10.209090 25.917503 34.390283 0.000005 -0.000003 -0.000000 -6.613054 10.956205 -42.870212 -19.954638 21.119408 -71.463422 -48.061678 1.636552 -58.204966 -0.000001 -0.000002 -0.000000 -7.971864 -3.892494 18.561471 104.645212 6.460309 22.850972 13.178522 0.164990 -4.224398 -0.000001 0.000000 0.000003 6.168167 -0.781190 11.615405 -0.896147 3.438228 11.103359 -15.265488 -17.045350 -7.070844 -0.000001 -0.000001 -0.000000 
-25.441933 101.627731 -5.536887 0.876093 -25.377877 -10.928596 -9.356617 3.388250 -8.013613 0.087181 2.554157 -6.017193 -1.082726 6.855390 8.511590 5.854180 0.050137 -2.847344 -0.000002 -0.000001 -0.000002 -9.295057 -5.394838 47.592587 -12.368613 -13.162159 82.975904 -10.404833 25.946424 34.944723 0.000001 0.000000 -0.000001 -6.702013 10.842790 -42.701072 -19.698667 20.540672 -71.782611 -48.351104 1.909621 -58.098921 0.000001 -0.000003 0.000001 -7.996007 -3.877109 18.539211 105.120532 6.534643 22.902671 13.750655 0.498495 -4.207558 -0.000002 0.000001 0.000002 6.070245 -0.757420 11.718833 -1.105847 3.479307 11.347681 -15.130730 -17.419216 -7.134043 0.000002 -0.000001 -0.000002 
-25.439011 101.571808 -5.571348 0.907975 -25.323522 -10.822057 -9.312417 3.448331 -8.292092 -2.048839 2.223604 -5.314002 0.979641 7.483204 8.026117 5.676665 0.112322 -2.821699 -0.000002 0.000001 -0.000001 -9.222590 -5.388617 47.514105 -12.165662 -12.916733 83.169834 -10.259429 25.967218 35.780953 0.000000 -0.000002 -0.000001 -6.616464 10.865783 -42.665941 -19.592329 20.435147 -71.786381 -48.424276 2.054539 -57.845637 0.000003 -0.000003 -0.000004 -8.119587 -3.929771 18.790301 105.619737 6.223325 22.473015 13.868627 1.167990 -3.993420 -0.000001 0.000004 0.000003 6.078870 -0.757733 11.812114 -1.369782 3.495877 11.263890 -15.097561 -17.424103 -7.015131 -0.000001 -0.000006 -0.000002 
